<?xml version="1.0" standalone="no"?>
<!DOCTYPE svg PUBLIC "-//W3C//DTD SVG 20010904//EN"
 "http://www.w3.org/TR/2001/REC-SVG-20010904/DTD/svg10.dtd">
<svg version="1.0" xmlns="http://www.w3.org/2000/svg"
 width="983.000000pt" height="983.000000pt" viewBox="0 0 983.000000 983.000000"
 preserveAspectRatio="xMidYMid meet">
<metadata>
Created by potrace 1.11, written by Peter Selinger 2001-2013
</metadata>
<g transform="translate(0.000000,983.000000) scale(0.100000,-0.100000)"
fill="#000000" stroke="none">
<path d="M0 4920 l0 -4550 4910 0 4910 0 0 4550 0 4550 -4910 0 -4910 0 0
-4550z m9628 -2 l2 -4338 -4720 0 -4720 0 0 4333 c0 2384 3 4337 7 4340 3 4
2126 6 4717 5 l4711 -3 3 -4337z"/>
<path d="M7021 8855 c-489 -56 -879 -243 -1093 -525 -65 -84 -142 -244 -168
-345 -65 -253 -44 -551 54 -743 78 -152 250 -307 431 -388 211 -94 382 -144
830 -244 384 -85 448 -105 500 -154 31 -30 35 -39 35 -86 0 -46 -4 -56 -33
-85 -176 -176 -984 -17 -1424 280 -37 25 -77 52 -88 60 -20 14 -30 -1 -255
-377 -129 -215 -236 -396 -238 -402 -3 -12 79 -75 183 -141 229 -146 626 -284
977 -341 250 -40 646 -56 857 -34 137 15 330 56 451 96 473 157 755 477 810
917 19 153 8 360 -25 472 -72 245 -223 408 -506 549 -176 87 -331 136 -724
227 -511 119 -581 142 -605 199 -27 66 27 133 134 166 114 35 411 26 593 -17
190 -45 449 -160 632 -279 51 -33 95 -59 97 -57 12 12 484 770 484 777 0 12
-150 118 -246 174 -241 138 -539 237 -869 287 -183 28 -608 35 -794 14z"/>
<path d="M880 7095 l0 -1725 537 0 536 0 -6 948 c-4 521 -10 1052 -14 1181 -5
190 -4 233 7 229 10 -3 347 -1187 660 -2321 l11 -37 487 2 486 3 334 1175
c183 646 335 1176 338 1179 2 2 6 2 8 0 3 -3 1 -261 -4 -574 -5 -314 -9 -843
-10 -1177 l0 -608 530 0 530 0 0 1725 0 1725 -809 0 -809 0 -7 -27 c-3 -16
-93 -363 -200 -773 -106 -410 -225 -884 -265 -1055 -40 -170 -74 -312 -76
-314 -9 -10 -17 19 -79 285 -36 153 -159 640 -273 1081 l-207 803 -852 0 -853
0 0 -1725z"/>
<path d="M890 3020 l0 -2060 725 0 725 0 0 538 1 537 170 233 171 232 384
-770 383 -770 810 0 c446 0 811 3 811 6 0 3 -304 555 -677 1227 -372 672 -678
1229 -680 1238 -3 9 246 341 622 830 l627 814 -763 3 c-420 1 -769 0 -775 -2
-6 -2 -251 -348 -545 -767 l-534 -763 -3 767 -2 767 -725 0 -725 0 0 -2060z"/>
<path d="M5230 4560 l0 -520 1032 0 1033 0 -1043 -1043 -1042 -1042 0 -498 0
-497 1860 0 1860 0 0 515 0 515 -1070 0 c-588 0 -1070 3 -1070 6 0 4 466 474
1035 1046 l1035 1039 0 499 0 500 -1815 0 -1815 0 0 -520z"/>
</g>
</svg>
